<svg width="100" height="104" viewBox="0 0 100 104" fill="none" xmlns="http://www.w3.org/2000/svg">
<path d="M42.3085 4.5938C47.0459 1.76439 52.9541 1.76438 57.6915 4.5938L85.9927 21.497C90.5255 24.2042 93.3013 29.0952 93.3013 34.3749V69.0733C93.3013 74.3531 90.5255 79.244 85.9927 81.9513L57.6915 98.8545C52.9541 101.684 47.0459 101.684 42.3085 98.8545L14.0073 81.9513C9.47447 79.244 6.69873 74.3531 6.69873 69.0734V34.3749C6.69873 29.0952 9.47446 24.2042 14.0073 21.497L42.3085 4.5938Z" fill="#C8B1F1"/>
<path d="M44.8826 9.94508C48.0359 8.06676 51.9647 8.06676 55.1179 9.94507L82.7452 26.4021C85.7728 28.2055 87.6276 31.4694 87.6276 34.9933V68.4551C87.6276 71.979 85.7728 75.2429 82.7452 77.0463L55.1179 93.5033C51.9647 95.3816 48.0359 95.3816 44.8826 93.5033L17.2553 77.0463C14.2278 75.2429 12.373 71.979 12.373 68.455V34.9933C12.373 31.4694 14.2278 28.2055 17.2553 26.4021L44.8826 9.94508Z" fill="#201E24"/>
<path d="M47.2704 13.2467C48.8464 12.3085 50.8096 12.3085 52.3857 13.2467L80.9815 30.2702C82.4959 31.1717 83.4238 32.804 83.4238 34.5665V68.8818C83.4238 70.6442 82.4959 72.2765 80.9815 73.1781L52.3857 90.2015C50.8096 91.1397 48.8464 91.1398 47.2704 90.2015L18.6745 73.1781C17.1601 72.2765 16.2322 70.6442 16.2322 68.8818V34.5665C16.2322 32.804 17.1601 31.1717 18.6745 30.2702L47.2704 13.2467Z" fill="#C8B1F1"/>
<path d="M48.5251 64.5717C46.7251 64.5717 45.0851 64.2917 43.6051 63.7317C42.1384 63.1584 40.9651 62.2651 40.0851 61.0517C39.2051 59.8384 38.7651 58.2717 38.7651 56.3517C38.7651 55.4317 39.0451 54.7251 39.6051 54.2317C40.1651 53.7251 40.8851 53.4717 41.7651 53.4717C42.8584 53.4717 43.6584 53.7651 44.1651 54.3517C44.6851 54.9251 45.0851 55.7651 45.3651 56.8717C45.4851 57.5917 45.6851 58.1784 45.9651 58.6317C46.2451 59.0717 46.5984 59.3984 47.0251 59.6117C47.4518 59.8117 47.9451 59.9117 48.5051 59.9117C49.2918 59.9117 49.9384 59.7117 50.4451 59.3117C50.9651 58.9117 51.3451 58.2451 51.5851 57.3117C51.8384 56.3651 51.9651 55.0851 51.9651 53.4717V43.0717C51.9651 40.6184 53.0518 39.3917 55.2251 39.3917C57.4251 39.3917 58.5251 40.6184 58.5251 43.0717V53.8917C58.5251 56.5851 58.0918 58.7117 57.2251 60.2717C56.3718 61.8184 55.1918 62.9251 53.6851 63.5917C52.1784 64.2451 50.4584 64.5717 48.5251 64.5717Z" fill="#201E24"/>
</svg>
