<svg width="475" height="391" viewBox="0 0 475 391" fill="none" xmlns="http://www.w3.org/2000/svg">
<path d="M227.25 6.43131C233.882 2.47013 242.154 2.47014 248.786 6.43132L357.737 71.5033C364.083 75.2934 367.969 82.1408 367.969 89.5324V220.925C367.969 228.317 364.083 235.164 357.737 238.954L248.786 304.026C242.154 307.987 233.882 307.987 227.25 304.026L118.299 238.954C111.953 235.164 108.067 228.317 108.067 220.925V89.5324C108.067 82.1407 111.953 75.2934 118.299 71.5033L227.25 6.43131Z" fill="#C8B1F1"/>
<path d="M227.27 27.099C233.892 23.1546 242.142 23.1546 248.764 27.099L340.687 81.8556C347.045 85.6428 350.94 92.4969 350.94 99.8972V210.56C350.94 217.961 347.045 224.815 340.687 228.602L248.764 283.359C242.142 287.303 233.892 287.303 227.27 283.359L135.347 228.602C128.989 224.815 125.094 217.961 125.094 210.56V99.8972C125.094 92.4969 128.989 85.6428 135.347 81.8556L227.27 27.099Z" fill="#201E24"/>
<path d="M232.384 38.2305C235.536 36.354 239.463 36.354 242.615 38.2305L333.439 92.2992C336.468 94.1023 338.324 97.3669 338.324 100.892V209.566C338.324 213.091 336.468 216.355 333.439 218.159L242.615 272.227C239.463 274.104 235.536 274.104 232.384 272.227L141.56 218.159C138.531 216.355 136.676 213.091 136.676 209.566V100.892C136.676 97.3669 138.531 94.1023 141.56 92.2992L232.384 38.2305Z" fill="#C8B1F1"/>
<path d="M235.416 175.483C232.536 175.483 229.912 175.035 227.544 174.139C225.197 173.221 223.32 171.792 221.912 169.851C220.504 167.909 219.8 165.403 219.8 162.331C219.8 160.859 220.248 159.728 221.144 158.939C222.04 158.128 223.192 157.723 224.6 157.723C226.349 157.723 227.629 158.192 228.44 159.131C229.272 160.048 229.912 161.392 230.36 163.163C230.552 164.315 230.872 165.253 231.32 165.979C231.768 166.683 232.333 167.205 233.016 167.547C233.698 167.867 234.488 168.027 235.384 168.027C236.642 168.027 237.677 167.707 238.488 167.067C239.32 166.427 239.928 165.36 240.312 163.867C240.717 162.352 240.92 160.304 240.92 157.723V141.083C240.92 137.157 242.658 135.195 246.136 135.195C249.656 135.195 251.416 137.157 251.416 141.083V158.395C251.416 162.704 250.722 166.107 249.336 168.603C247.97 171.077 246.082 172.848 243.672 173.915C241.261 174.96 238.509 175.483 235.416 175.483Z" fill="#201E24"/>
<path d="M18.556 385.106C15.676 385.106 13.052 384.658 10.684 383.762C8.33735 382.844 6.46002 381.415 5.05202 379.474C3.64402 377.532 2.94002 375.026 2.94002 371.954C2.94002 370.482 3.38802 369.351 4.28402 368.562C5.18002 367.751 6.33202 367.346 7.74002 367.346C9.48935 367.346 10.7694 367.815 11.58 368.754C12.412 369.671 13.052 371.015 13.5 372.786C13.692 373.938 14.012 374.876 14.46 375.602C14.908 376.306 15.4734 376.828 16.156 377.17C16.8387 377.49 17.628 377.65 18.524 377.65C19.7827 377.65 20.8174 377.33 21.628 376.69C22.46 376.05 23.068 374.983 23.452 373.49C23.8574 371.975 24.06 369.927 24.06 367.346V350.706C24.06 346.78 25.7987 344.818 29.276 344.818C32.796 344.818 34.556 346.78 34.556 350.706V368.018C34.556 372.327 33.8627 375.73 32.476 378.226C31.1107 380.7 29.2227 382.471 26.812 383.538C24.4014 384.583 21.6494 385.106 18.556 385.106ZM60.097 385.106C57.8784 385.106 55.7024 384.754 53.569 384.05C51.4357 383.324 49.4837 382.172 47.713 380.594C45.9637 379.015 44.5664 376.924 43.521 374.322C42.4757 371.719 41.953 368.53 41.953 364.754C41.953 360.978 42.4757 357.799 43.521 355.218C44.5664 352.615 45.9637 350.524 47.713 348.946C49.4837 347.367 51.4357 346.226 53.569 345.522C55.7024 344.796 57.8784 344.434 60.097 344.434C62.273 344.434 64.4277 344.796 66.561 345.522C68.7157 346.226 70.657 347.367 72.385 348.946C74.1344 350.524 75.5317 352.615 76.577 355.218C77.6224 357.799 78.145 360.978 78.145 364.754C78.145 368.53 77.6224 371.719 76.577 374.322C75.5317 376.924 74.1344 379.015 72.385 380.594C70.657 382.172 68.7157 383.324 66.561 384.05C64.4277 384.754 62.273 385.106 60.097 385.106ZM60.097 377.65C61.5904 377.65 62.8917 377.17 64.001 376.21C65.1104 375.228 65.9744 373.778 66.593 371.858C67.2117 369.938 67.521 367.57 67.521 364.754C67.521 361.959 67.2117 359.612 66.593 357.714C65.9744 355.794 65.1104 354.343 64.001 353.362C62.8917 352.38 61.5904 351.89 60.097 351.89C58.5824 351.89 57.2597 352.38 56.129 353.362C54.9984 354.343 54.1237 355.794 53.505 357.714C52.9077 359.612 52.609 361.959 52.609 364.754C52.609 367.57 52.9077 369.938 53.505 371.858C54.1237 373.778 54.9984 375.228 56.129 376.21C57.2597 377.17 58.5824 377.65 60.097 377.65ZM99.526 385.106C96.4327 385.106 93.6914 384.743 91.302 384.018C88.934 383.271 87.014 382.29 85.542 381.074C83.5367 379.58 82.534 377.788 82.534 375.698C82.534 374.759 82.8754 373.842 83.558 372.946C84.2407 372.05 85.3074 371.602 86.758 371.602C87.9954 371.602 89.0407 371.868 89.894 372.402C90.7474 372.935 91.5474 373.554 92.294 374.258C93.1687 375.154 94.182 375.943 95.334 376.626C96.486 377.308 97.9474 377.65 99.718 377.65C100.913 377.65 101.979 377.49 102.918 377.17C103.878 376.828 104.635 376.348 105.19 375.73C105.745 375.111 106.022 374.375 106.022 373.522C106.022 372.156 105.339 371.154 103.974 370.514C102.609 369.852 100.529 369.202 97.734 368.562C92.6567 367.41 88.9767 365.724 86.694 363.506C84.4327 361.287 83.302 358.631 83.302 355.538C83.302 353.255 84.038 351.282 85.51 349.618C86.982 347.954 88.9767 346.674 91.494 345.778C94.0327 344.882 96.8914 344.434 100.07 344.434C102.417 344.434 104.689 344.743 106.886 345.362C109.083 345.959 110.918 346.844 112.39 348.018C113.265 348.636 113.969 349.362 114.502 350.194C115.035 351.026 115.302 351.964 115.302 353.01C115.302 354.247 114.918 355.228 114.15 355.954C113.403 356.658 112.411 357.01 111.174 357.01C109.958 357.01 108.913 356.7 108.038 356.082C107.163 355.463 106.449 354.887 105.894 354.354C105.297 353.65 104.475 353.063 103.43 352.594C102.385 352.124 101.105 351.89 99.59 351.89C98.4807 351.89 97.4994 352.039 96.646 352.338C95.7927 352.615 95.1314 353.02 94.662 353.554C94.1927 354.066 93.958 354.674 93.958 355.378C93.958 356.466 94.63 357.404 95.974 358.194C97.3394 358.983 99.43 359.73 102.246 360.434C105.062 361.116 107.547 361.959 109.702 362.962C111.878 363.964 113.585 365.255 114.822 366.834C116.059 368.412 116.678 370.407 116.678 372.818C116.678 375.314 115.953 377.49 114.502 379.346C113.051 381.18 111.035 382.599 108.454 383.602C105.873 384.604 102.897 385.106 99.526 385.106ZM138.955 385.106C135.883 385.106 133.078 384.54 130.539 383.41C128.022 382.279 125.995 380.455 124.459 377.938C122.944 375.42 122.187 372.103 122.187 367.986V350.706C122.187 346.78 123.936 344.818 127.435 344.818C130.934 344.818 132.683 346.78 132.683 350.706V367.41C132.683 370.61 133.216 373.116 134.283 374.93C135.35 376.743 136.907 377.65 138.955 377.65C141.003 377.65 142.55 376.743 143.595 374.93C144.64 373.116 145.163 370.61 145.163 367.41V350.706C145.163 346.78 146.912 344.818 150.411 344.818C153.91 344.818 155.659 346.78 155.659 350.706V367.986C155.659 372.103 154.902 375.42 153.387 377.938C151.894 380.455 149.888 382.279 147.371 383.41C144.854 384.54 142.048 385.106 138.955 385.106ZM193.36 348.53C193.36 351.026 191.483 352.274 187.728 352.274H174.608V360.946H185.008C186.907 360.946 188.229 361.266 188.976 361.906C189.744 362.524 190.128 363.431 190.128 364.626C190.128 365.842 189.744 366.77 188.976 367.41C188.229 368.028 186.907 368.338 185.008 368.338H174.608V376.978H187.728C191.483 376.978 193.36 378.226 193.36 380.722C193.36 383.196 191.483 384.434 187.728 384.434H170C166.075 384.434 164.112 382.471 164.112 378.546V350.706C164.112 346.78 166.075 344.818 170 344.818H187.728C191.483 344.818 193.36 346.055 193.36 348.53ZM257.242 385.106C255.023 385.106 252.847 384.754 250.714 384.05C248.581 383.324 246.629 382.172 244.858 380.594C243.109 379.015 241.711 376.924 240.666 374.322C239.621 371.719 239.098 368.53 239.098 364.754C239.098 360.978 239.621 357.799 240.666 355.218C241.711 352.615 243.109 350.524 244.858 348.946C246.629 347.367 248.581 346.226 250.714 345.522C252.847 344.796 255.023 344.434 257.242 344.434C259.418 344.434 261.573 344.796 263.706 345.522C265.861 346.226 267.802 347.367 269.53 348.946C271.279 350.524 272.677 352.615 273.722 355.218C274.767 357.799 275.29 360.978 275.29 364.754C275.29 368.53 274.767 371.719 273.722 374.322C272.677 376.924 271.279 379.015 269.53 380.594C267.802 382.172 265.861 383.324 263.706 384.05C261.573 384.754 259.418 385.106 257.242 385.106ZM257.242 377.65C258.735 377.65 260.037 377.17 261.146 376.21C262.255 375.228 263.119 373.778 263.738 371.858C264.357 369.938 264.666 367.57 264.666 364.754C264.666 361.959 264.357 359.612 263.738 357.714C263.119 355.794 262.255 354.343 261.146 353.362C260.037 352.38 258.735 351.89 257.242 351.89C255.727 351.89 254.405 352.38 253.274 353.362C252.143 354.343 251.269 355.794 250.65 357.714C250.053 359.612 249.754 361.959 249.754 364.754C249.754 367.57 250.053 369.938 250.65 371.858C251.269 373.778 252.143 375.228 253.274 376.21C254.405 377.17 255.727 377.65 257.242 377.65ZM291.423 352.274V361.714H296.671C298.484 361.714 299.85 361.319 300.767 360.53C301.684 359.719 302.143 358.514 302.143 356.914C302.143 355.335 301.695 354.172 300.799 353.426C299.903 352.658 298.527 352.274 296.671 352.274H291.423ZM280.927 379.122V350.706C280.927 346.78 282.879 344.818 286.783 344.818H298.591C299.935 344.818 301.407 344.946 303.007 345.202C304.607 345.436 306.143 345.948 307.615 346.738C309.087 347.506 310.292 348.658 311.231 350.194C312.17 351.73 312.639 353.788 312.639 356.37C312.639 358.994 312.095 361.138 311.007 362.802C309.919 364.444 308.586 365.714 307.007 366.61L311.871 378.002C312.084 378.514 312.255 379.026 312.383 379.538C312.511 380.05 312.575 380.53 312.575 380.978C312.575 382.172 312.17 383.143 311.359 383.89C310.548 384.615 309.364 384.978 307.807 384.978C305.93 384.978 304.586 384.53 303.775 383.634C302.964 382.716 302.25 381.426 301.631 379.762L297.471 369.17H291.423V379.122C291.423 383.026 289.663 384.978 286.143 384.978C282.666 384.978 280.927 383.026 280.927 379.122ZM336.1 385.106C333.881 385.106 331.705 384.754 329.572 384.05C327.439 383.324 325.487 382.172 323.716 380.594C321.967 379.015 320.569 376.924 319.524 374.322C318.479 371.719 317.956 368.53 317.956 364.754C317.956 360.978 318.479 357.799 319.524 355.218C320.569 352.615 321.967 350.524 323.716 348.946C325.487 347.367 327.439 346.226 329.572 345.522C331.705 344.796 333.881 344.434 336.1 344.434C338.276 344.434 340.431 344.796 342.564 345.522C344.719 346.226 346.66 347.367 348.388 348.946C350.137 350.524 351.535 352.615 352.58 355.218C353.625 357.799 354.148 360.978 354.148 364.754C354.148 368.53 353.625 371.719 352.58 374.322C351.535 376.924 350.137 379.015 348.388 380.594C346.66 382.172 344.719 383.324 342.564 384.05C340.431 384.754 338.276 385.106 336.1 385.106ZM336.1 377.65C337.593 377.65 338.895 377.17 340.004 376.21C341.113 375.228 341.977 373.778 342.596 371.858C343.215 369.938 343.524 367.57 343.524 364.754C343.524 361.959 343.215 359.612 342.596 357.714C341.977 355.794 341.113 354.343 340.004 353.362C338.895 352.38 337.593 351.89 336.1 351.89C334.585 351.89 333.263 352.38 332.132 353.362C331.001 354.343 330.127 355.794 329.508 357.714C328.911 359.612 328.612 361.959 328.612 364.754C328.612 367.57 328.911 369.938 329.508 371.858C330.127 373.778 331.001 375.228 332.132 376.21C333.263 377.17 334.585 377.65 336.1 377.65ZM371.657 376.978H383.273C385.193 376.978 386.654 377.308 387.657 377.97C388.681 378.61 389.193 379.527 389.193 380.722C389.193 381.916 388.681 382.834 387.657 383.474C386.654 384.114 385.193 384.434 383.273 384.434H366.857C364.937 384.434 363.476 383.975 362.473 383.058C361.47 382.119 360.969 380.85 360.969 379.25C360.969 378.162 361.14 377.266 361.481 376.562C361.844 375.858 362.42 374.908 363.209 373.714L377.737 352.274H367.337C365.417 352.274 363.956 351.954 362.953 351.314C361.95 350.652 361.449 349.724 361.449 348.53C361.449 347.314 361.95 346.396 362.953 345.778C363.956 345.138 365.417 344.818 367.337 344.818H382.665C384.564 344.818 386.014 345.298 387.017 346.258C388.02 347.196 388.521 348.487 388.521 350.13C388.521 351.047 388.35 351.879 388.009 352.626C387.689 353.372 387.113 354.343 386.281 355.538L371.657 376.978ZM417.454 385.106C415.278 385.106 413.059 384.786 410.798 384.146C408.558 383.506 406.489 382.418 404.59 380.882C402.691 379.346 401.166 377.266 400.014 374.642C398.862 372.018 398.286 368.732 398.286 364.786C398.286 360.818 398.862 357.522 400.014 354.898C401.166 352.252 402.691 350.172 404.59 348.658C406.489 347.122 408.558 346.034 410.798 345.394C413.059 344.754 415.278 344.434 417.454 344.434C419.353 344.434 421.166 344.7 422.894 345.234C424.622 345.746 426.169 346.471 427.534 347.41C428.921 348.348 430.009 349.436 430.798 350.674C431.587 351.911 431.982 353.244 431.982 354.674C431.982 356.018 431.534 357.095 430.638 357.906C429.763 358.716 428.718 359.122 427.502 359.122C426.03 359.122 424.995 358.802 424.398 358.162C423.822 357.5 423.353 356.764 422.99 355.954C422.734 355.314 422.393 354.684 421.966 354.066C421.561 353.426 420.995 352.903 420.27 352.498C419.566 352.092 418.627 351.89 417.454 351.89C416.003 351.89 414.617 352.316 413.294 353.17C411.993 354.002 410.937 355.356 410.126 357.234C409.315 359.111 408.91 361.628 408.91 364.786C408.91 367.922 409.315 370.439 410.126 372.338C410.937 374.215 411.993 375.57 413.294 376.402C414.617 377.234 416.003 377.65 417.454 377.65C418.627 377.65 419.566 377.447 420.27 377.042C420.995 376.636 421.561 376.124 421.966 375.506C422.393 374.866 422.734 374.226 422.99 373.586C423.353 372.775 423.822 372.05 424.398 371.41C424.995 370.748 426.03 370.418 427.502 370.418C428.718 370.418 429.763 370.834 430.638 371.666C431.534 372.476 431.982 373.543 431.982 374.866C431.982 376.295 431.577 377.628 430.766 378.866C429.977 380.103 428.899 381.191 427.534 382.13C426.169 383.068 424.611 383.804 422.862 384.338C421.134 384.85 419.331 385.106 417.454 385.106ZM454.387 385.106C452.168 385.106 449.992 384.754 447.859 384.05C445.726 383.324 443.774 382.172 442.003 380.594C440.254 379.015 438.856 376.924 437.811 374.322C436.766 371.719 436.243 368.53 436.243 364.754C436.243 360.978 436.766 357.799 437.811 355.218C438.856 352.615 440.254 350.524 442.003 348.946C443.774 347.367 445.726 346.226 447.859 345.522C449.992 344.796 452.168 344.434 454.387 344.434C456.563 344.434 458.718 344.796 460.851 345.522C463.006 346.226 464.947 347.367 466.675 348.946C468.424 350.524 469.822 352.615 470.867 355.218C471.912 357.799 472.435 360.978 472.435 364.754C472.435 368.53 471.912 371.719 470.867 374.322C469.822 376.924 468.424 379.015 466.675 380.594C464.947 382.172 463.006 383.324 460.851 384.05C458.718 384.754 456.563 385.106 454.387 385.106ZM454.387 377.65C455.88 377.65 457.182 377.17 458.291 376.21C459.4 375.228 460.264 373.778 460.883 371.858C461.502 369.938 461.811 367.57 461.811 364.754C461.811 361.959 461.502 359.612 460.883 357.714C460.264 355.794 459.4 354.343 458.291 353.362C457.182 352.38 455.88 351.89 454.387 351.89C452.872 351.89 451.55 352.38 450.419 353.362C449.288 354.343 448.414 355.794 447.795 357.714C447.198 359.612 446.899 361.959 446.899 364.754C446.899 367.57 447.198 369.938 447.795 371.858C448.414 373.778 449.288 375.228 450.419 376.21C451.55 377.17 452.872 377.65 454.387 377.65Z" fill="#B79CED"/>
</svg>
