<svg width="38" height="35" viewBox="0 0 38 35" fill="none" xmlns="http://www.w3.org/2000/svg">
<path d="M11.5185 3.79756C10.9225 4.14165 10.2953 5.09053 10.2226 7.16032C10.188 8.14347 9.36296 8.91245 8.37983 8.87787C7.39667 8.84329 6.6277 8.01829 6.66225 7.03513C6.75148 4.49766 7.55392 1.97287 9.73724 0.712336C11.9268 -0.551774 14.5227 0.0222704 16.7705 1.22144C17.6385 1.68449 17.9668 2.7635 17.5037 3.63145C17.0406 4.49942 15.9616 4.82766 15.0937 4.36463C13.2568 3.38466 12.1163 3.45242 11.5185 3.79756ZM21.0695 6.88717C21.8271 6.25955 22.95 6.36488 23.5776 7.12244C24.8943 8.71162 26.1573 10.5238 27.3037 12.5096C29.7744 16.7887 31.2977 21.1728 31.7084 24.8502C31.9133 26.6858 31.8506 28.4326 31.422 29.9307C30.9899 31.4403 30.1485 32.8066 28.7373 33.6213C27.0299 34.6071 25.0584 34.4672 23.254 33.8103C21.4431 33.151 19.5794 31.9025 17.8027 30.2808C17.0761 29.6175 17.0247 28.4908 17.688 27.7643C18.3512 27.0378 19.4778 26.9862 20.2044 27.6496C21.7698 29.0784 23.241 30.0141 24.4727 30.4627C25.711 30.9135 26.49 30.8052 26.956 30.5361C27.3465 30.3107 27.7393 29.8514 27.997 28.9506C28.258 28.0386 28.3404 26.7898 28.168 25.2454C27.8236 22.1624 26.5029 18.2473 24.2186 14.2909C23.1679 12.4711 22.0182 10.8242 20.8343 9.39522C20.2067 8.63766 20.312 7.51476 21.0695 6.88717Z" fill="#92B2E5"/>
<path d="M34.4375 17.6524C34.4375 16.9642 33.9293 15.9466 32.1732 14.8487C31.3391 14.3272 31.0857 13.2282 31.6072 12.3941C32.1288 11.5599 33.2277 11.3065 34.0618 11.828C36.2147 13.174 38 15.1313 38 17.6524C38 20.1806 36.205 22.1417 34.0425 23.4888C33.2075 24.0089 32.1088 23.7538 31.5887 22.9188C31.0686 22.0837 31.3239 20.9852 32.1587 20.465C33.9259 19.3642 34.4375 18.3426 34.4375 17.6524ZM26.9862 24.3789C27.151 25.3489 26.4984 26.2687 25.5284 26.4335C23.494 26.7791 21.293 26.9667 19 26.9667C14.0589 26.9667 9.50043 26.0942 6.11054 24.611C4.41826 23.8707 2.9369 22.943 1.85376 21.8227C0.76232 20.6938 0 19.2818 0 17.6524C0 15.6809 1.10694 14.0434 2.57801 12.8093C4.05441 11.5707 6.06744 10.5808 8.36031 9.85305C9.29798 9.55544 10.2994 10.0743 10.597 11.0119C10.8946 11.9496 10.3758 12.951 9.43811 13.2486C7.41793 13.8898 5.87195 14.696 4.86766 15.5385C3.858 16.3856 3.5625 17.1143 3.5625 17.6524C3.5625 18.1031 3.7638 18.673 4.41501 19.3466C5.0745 20.0287 6.11477 20.7244 7.53846 21.3473C10.3806 22.5906 14.4314 23.4042 19 23.4042C21.1013 23.4042 23.1024 23.232 24.9318 22.9212C25.9017 22.7566 26.8216 23.4092 26.9862 24.3789Z" fill="#92B2E5"/>
<path d="M11.5709 30.5361C12.1669 30.8803 13.3022 30.9489 15.1311 29.9771C15.9998 29.5154 17.0783 29.8455 17.5399 30.714C18.0016 31.5828 17.6716 32.6613 16.8028 33.123C14.5607 34.3143 11.973 34.8819 9.78965 33.6213C7.60017 32.3573 6.79929 29.822 6.71391 27.2757C6.68095 26.2925 7.45125 25.4688 8.43446 25.4358C9.41766 25.4028 10.2415 26.173 10.2744 27.1563C10.3442 29.2373 10.9731 30.1911 11.5709 30.5361ZM9.47107 20.7198C8.54876 20.3776 8.07854 19.3525 8.4208 18.4301C9.13876 16.4954 10.0766 14.4954 11.2231 12.5096C13.6937 8.2305 16.7287 4.71908 19.708 2.52489C21.1953 1.4295 22.7393 0.610405 24.2512 0.232569C25.7745 -0.14817 27.3786 -0.102397 28.7896 0.71234C30.497 1.69806 31.3617 3.47549 31.6949 5.36653C32.0293 7.26442 31.8802 9.50264 31.3639 11.8523C31.1527 12.8131 30.2027 13.4209 29.242 13.2098C28.2811 12.9987 27.6734 12.0487 27.8845 11.0879C28.3391 9.01774 28.4139 7.2758 28.1866 5.98477C27.9579 4.68688 27.4743 4.06662 27.0084 3.79756C26.6181 3.57217 26.0239 3.46159 25.115 3.68876C24.1945 3.91883 23.0718 4.47189 21.8206 5.39339C19.3227 7.23302 16.5926 10.3343 14.3083 14.2909C13.2577 16.1106 12.4064 17.9298 11.7607 19.6696C11.4185 20.5919 10.3934 21.0621 9.47107 20.7198Z" fill="#92B2E5"/>
<path d="M22.4658 17.3213C22.4658 19.1044 21.0203 20.5499 19.2373 20.5499C17.4542 20.5499 16.0088 19.1044 16.0088 17.3213C16.0088 15.5383 17.4542 14.0928 19.2373 14.0928C21.0203 14.0928 22.4658 15.5383 22.4658 17.3213Z" fill="#92B2E5"/>
</svg>
